<mxfile host="app.diagrams.net" modified="2022-06-18T14:13:58.495Z" agent="5.0 (Windows NT 10.0; Win64; x64) AppleWebKit/537.36 (KHTML, like Gecko) Chrome/100.0.4896.127 Safari/537.36" etag="PCNcwjjsJI2_CJoEfCpJ" version="20.0.1" type="github">
  <diagram id="MedYQDeV-F79YKgBFQhL" name="第 1 页">
    <mxGraphModel dx="1886" dy="1094" grid="1" gridSize="10" guides="1" tooltips="1" connect="1" arrows="1" fold="1" page="1" pageScale="1" pageWidth="827" pageHeight="1169" math="0" shadow="0">
      <root>
        <mxCell id="0" />
        <mxCell id="1" parent="0" />
        <mxCell id="vhrxewNEwcAQ_lFFi1NT-1" value="" style="rounded=1;whiteSpace=wrap;html=1;arcSize=46;" vertex="1" parent="1">
          <mxGeometry x="200" y="40" width="440" height="110" as="geometry" />
        </mxCell>
        <mxCell id="vhrxewNEwcAQ_lFFi1NT-2" value="" style="rounded=1;whiteSpace=wrap;html=1;arcSize=46;" vertex="1" parent="1">
          <mxGeometry x="180" y="30" width="440" height="110" as="geometry" />
        </mxCell>
        <mxCell id="vhrxewNEwcAQ_lFFi1NT-3" value="" style="rounded=1;whiteSpace=wrap;html=1;arcSize=46;" vertex="1" parent="1">
          <mxGeometry x="160" y="20" width="440" height="110" as="geometry" />
        </mxCell>
        <mxCell id="vhrxewNEwcAQ_lFFi1NT-4" value="" style="rounded=0;whiteSpace=wrap;html=1;dashed=1;dashPattern=1 4;" vertex="1" parent="1">
          <mxGeometry x="190" y="45" width="380" height="75" as="geometry" />
        </mxCell>
        <mxCell id="vhrxewNEwcAQ_lFFi1NT-5" value="客户机节点（如用户计算机）" style="text;html=1;strokeColor=none;fillColor=none;align=center;verticalAlign=middle;whiteSpace=wrap;rounded=0;dashed=1;dashPattern=1 4;" vertex="1" parent="1">
          <mxGeometry x="280" y="15" width="170" height="30" as="geometry" />
        </mxCell>
        <mxCell id="vhrxewNEwcAQ_lFFi1NT-6" value="虚拟数据库空间客户端" style="text;html=1;strokeColor=none;fillColor=none;align=center;verticalAlign=middle;whiteSpace=wrap;rounded=0;dashed=1;dashPattern=1 4;" vertex="1" parent="1">
          <mxGeometry x="280" y="40" width="170" height="30" as="geometry" />
        </mxCell>
        <mxCell id="vhrxewNEwcAQ_lFFi1NT-7" value="账户客户端&lt;br&gt;模块" style="rounded=0;whiteSpace=wrap;html=1;" vertex="1" parent="1">
          <mxGeometry x="197" y="70" width="63" height="45" as="geometry" />
        </mxCell>
        <mxCell id="vhrxewNEwcAQ_lFFi1NT-8" value="权限客户端模块" style="rounded=0;whiteSpace=wrap;html=1;" vertex="1" parent="1">
          <mxGeometry x="270" y="70" width="60" height="45" as="geometry" />
        </mxCell>
        <mxCell id="vhrxewNEwcAQ_lFFi1NT-9" value="数据库资源访问客户端模块&lt;span style=&quot;color: rgba(0, 0, 0, 0); font-family: monospace; font-size: 0px; text-align: start;&quot;&gt;%3CmxGraphModel%3E%3Croot%3E%3CmxCell%20id%3D%220%22%2F%3E%3CmxCell%20id%3D%221%22%20parent%3D%220%22%2F%3E%3CmxCell%20id%3D%222%22%20value%3D%22%E6%9D%83%E9%99%90%E5%AE%A2%E6%88%B7%E7%AB%AF%E6%A8%A1%E5%9D%97%22%20style%3D%22rounded%3D0%3BwhiteSpace%3Dwrap%3Bhtml%3D1%3Bdashed%3D1%3BdashPattern%3D1%204%3B%22%20vertex%3D%221%22%20parent%3D%221%22%3E%3CmxGeometry%20x%3D%22280%22%20y%3D%2270%22%20width%3D%2273%22%20height%3D%2245%22%20as%3D%22geometry%22%2F%3E%3C%2FmxCell%3E%3C%2Froot%3E%3C%2FmxGraphModel%3E&lt;/span&gt;" style="rounded=0;whiteSpace=wrap;html=1;" vertex="1" parent="1">
          <mxGeometry x="341" y="70" width="73" height="45" as="geometry" />
        </mxCell>
        <mxCell id="vhrxewNEwcAQ_lFFi1NT-10" value="数据资源访问客户端模块&lt;span style=&quot;color: rgba(0, 0, 0, 0); font-family: monospace; font-size: 0px; text-align: start;&quot;&gt;%3CmxGraphModel%3E%3Croot%3E%3CmxCell%20id%3D%220%22%2F%3E%3CmxCell%20id%3D%221%22%20parent%3D%220%22%2F%3E%3CmxCell%20id%3D%222%22%20value%3D%22%E6%9D%83%E9%99%90%E5%AE%A2%E6%88%B7%E7%AB%AF%E6%A8%A1%E5%9D%97%22%20style%3D%22rounded%3D0%3BwhiteSpace%3Dwrap%3Bhtml%3D1%3Bdashed%3D1%3BdashPattern%3D1%204%3B%22%20vertex%3D%221%22%20parent%3D%221%22%3E%3CmxGeometry%20x%3D%22280%22%20y%3D%2270%22%20width%3D%2273%22%20height%3D%2245%22%20as%3D%22geometry%22%2F%3E%3C%2FmxCell%3E%3C%2Froot%3E%3C%2FmxGraphModel%3E&lt;/span&gt;" style="rounded=0;whiteSpace=wrap;html=1;" vertex="1" parent="1">
          <mxGeometry x="423" y="70" width="60" height="45" as="geometry" />
        </mxCell>
        <mxCell id="vhrxewNEwcAQ_lFFi1NT-11" value="主题服务访问客户端模块&lt;span style=&quot;color: rgba(0, 0, 0, 0); font-family: monospace; font-size: 0px; text-align: start;&quot;&gt;%3CmxGraphModel%3E%3Croot%3E%3CmxCell%20id%3D%220%22%2F%3E%3CmxCell%20id%3D%221%22%20parent%3D%220%22%2F%3E%3CmxCell%20id%3D%222%22%20value%3D%22%E6%9D%83%E9%99%90%E5%AE%A2%E6%88%B7%E7%AB%AF%E6%A8%A1%E5%9D%97%22%20style%3D%22rounded%3D0%3BwhiteSpace%3Dwrap%3Bhtml%3D1%3Bdashed%3D1%3BdashPattern%3D1%204%3B%22%20vertex%3D%221%22%20parent%3D%221%22%3E%3CmxGeometry%20x%3D%22280%22%20y%3D%2270%22%20width%3D%2273%22%20height%3D%2245%22%20as%3D%22geometry%22%2F%3E%3C%2FmxCell%3E%3C%2Froot%3E%3C%2FmxGraphModel%3E&lt;/span&gt;" style="rounded=0;whiteSpace=wrap;html=1;" vertex="1" parent="1">
          <mxGeometry x="490" y="70" width="70" height="45" as="geometry" />
        </mxCell>
        <mxCell id="vhrxewNEwcAQ_lFFi1NT-12" value="跨域局域网" style="ellipse;whiteSpace=wrap;html=1;" vertex="1" parent="1">
          <mxGeometry x="354" y="190" width="120" height="80" as="geometry" />
        </mxCell>
        <mxCell id="vhrxewNEwcAQ_lFFi1NT-13" value="" style="endArrow=none;html=1;rounded=0;" edge="1" parent="1" source="vhrxewNEwcAQ_lFFi1NT-12">
          <mxGeometry width="50" height="50" relative="1" as="geometry">
            <mxPoint x="414" y="169.28932188134524" as="sourcePoint" />
            <mxPoint x="414" y="119.28932188134524" as="targetPoint" />
          </mxGeometry>
        </mxCell>
        <mxCell id="vhrxewNEwcAQ_lFFi1NT-14" value="&lt;span style=&quot;&quot;&gt;局域E&lt;/span&gt;" style="rounded=0;whiteSpace=wrap;html=1;" vertex="1" parent="1">
          <mxGeometry x="570" y="200" width="120" height="60" as="geometry" />
        </mxCell>
        <mxCell id="vhrxewNEwcAQ_lFFi1NT-15" value="局域A" style="rounded=0;whiteSpace=wrap;html=1;" vertex="1" parent="1">
          <mxGeometry x="140" y="200" width="120" height="60" as="geometry" />
        </mxCell>
        <mxCell id="vhrxewNEwcAQ_lFFi1NT-16" value="&lt;span style=&quot;&quot;&gt;局域B&lt;/span&gt;" style="rounded=0;whiteSpace=wrap;html=1;" vertex="1" parent="1">
          <mxGeometry x="160" y="320" width="120" height="60" as="geometry" />
        </mxCell>
        <mxCell id="vhrxewNEwcAQ_lFFi1NT-17" value="&lt;span style=&quot;&quot;&gt;局域D&lt;/span&gt;" style="rounded=0;whiteSpace=wrap;html=1;" vertex="1" parent="1">
          <mxGeometry x="560" y="320" width="120" height="60" as="geometry" />
        </mxCell>
        <mxCell id="vhrxewNEwcAQ_lFFi1NT-18" value="&lt;span style=&quot;&quot;&gt;局域C&lt;/span&gt;" style="rounded=0;whiteSpace=wrap;html=1;" vertex="1" parent="1">
          <mxGeometry x="354" y="390" width="120" height="60" as="geometry" />
        </mxCell>
        <mxCell id="vhrxewNEwcAQ_lFFi1NT-19" value="" style="endArrow=none;html=1;rounded=0;entryX=1;entryY=0.5;entryDx=0;entryDy=0;" edge="1" parent="1" source="vhrxewNEwcAQ_lFFi1NT-12" target="vhrxewNEwcAQ_lFFi1NT-15">
          <mxGeometry width="50" height="50" relative="1" as="geometry">
            <mxPoint x="283.28932188134524" y="280" as="sourcePoint" />
            <mxPoint x="283.28932188134524" y="230" as="targetPoint" />
          </mxGeometry>
        </mxCell>
        <mxCell id="vhrxewNEwcAQ_lFFi1NT-20" value="" style="endArrow=none;html=1;rounded=0;exitX=0.5;exitY=0;exitDx=0;exitDy=0;entryX=0;entryY=1;entryDx=0;entryDy=0;" edge="1" parent="1" source="vhrxewNEwcAQ_lFFi1NT-16" target="vhrxewNEwcAQ_lFFi1NT-12">
          <mxGeometry width="50" height="50" relative="1" as="geometry">
            <mxPoint x="410" y="340" as="sourcePoint" />
            <mxPoint x="460" y="290" as="targetPoint" />
          </mxGeometry>
        </mxCell>
        <mxCell id="vhrxewNEwcAQ_lFFi1NT-22" value="" style="endArrow=none;html=1;rounded=0;exitX=0.5;exitY=0;exitDx=0;exitDy=0;entryX=0.5;entryY=1;entryDx=0;entryDy=0;" edge="1" parent="1" source="vhrxewNEwcAQ_lFFi1NT-18" target="vhrxewNEwcAQ_lFFi1NT-12">
          <mxGeometry width="50" height="50" relative="1" as="geometry">
            <mxPoint x="230" y="330" as="sourcePoint" />
            <mxPoint x="381.57359312881" y="268.28427124745997" as="targetPoint" />
          </mxGeometry>
        </mxCell>
        <mxCell id="vhrxewNEwcAQ_lFFi1NT-23" value="" style="endArrow=none;html=1;rounded=0;exitX=0.5;exitY=0;exitDx=0;exitDy=0;entryX=1;entryY=1;entryDx=0;entryDy=0;" edge="1" parent="1" source="vhrxewNEwcAQ_lFFi1NT-17" target="vhrxewNEwcAQ_lFFi1NT-12">
          <mxGeometry width="50" height="50" relative="1" as="geometry">
            <mxPoint x="240" y="340" as="sourcePoint" />
            <mxPoint x="391.57359312881" y="278.28427124745997" as="targetPoint" />
          </mxGeometry>
        </mxCell>
        <mxCell id="vhrxewNEwcAQ_lFFi1NT-24" value="" style="endArrow=none;html=1;rounded=0;exitX=0;exitY=0.5;exitDx=0;exitDy=0;entryX=1;entryY=0.5;entryDx=0;entryDy=0;" edge="1" parent="1" source="vhrxewNEwcAQ_lFFi1NT-14" target="vhrxewNEwcAQ_lFFi1NT-12">
          <mxGeometry width="50" height="50" relative="1" as="geometry">
            <mxPoint x="250" y="350" as="sourcePoint" />
            <mxPoint x="401.57359312881" y="288.28427124745997" as="targetPoint" />
          </mxGeometry>
        </mxCell>
        <mxCell id="vhrxewNEwcAQ_lFFi1NT-25" value="" style="ellipse;whiteSpace=wrap;html=1;dashed=1;fillColor=none;" vertex="1" parent="1">
          <mxGeometry x="324" y="365" width="180" height="110" as="geometry" />
        </mxCell>
        <mxCell id="vhrxewNEwcAQ_lFFi1NT-26" value="" style="rounded=1;whiteSpace=wrap;html=1;dashed=1;fillColor=none;" vertex="1" parent="1">
          <mxGeometry x="40" y="598" width="760" height="682" as="geometry" />
        </mxCell>
        <mxCell id="vhrxewNEwcAQ_lFFi1NT-27" value="" style="endArrow=none;dashed=1;html=1;dashPattern=1 3;strokeWidth=2;rounded=0;entryX=0;entryY=0.5;entryDx=0;entryDy=0;" edge="1" parent="1" target="vhrxewNEwcAQ_lFFi1NT-25">
          <mxGeometry width="50" height="50" relative="1" as="geometry">
            <mxPoint x="110" y="600" as="sourcePoint" />
            <mxPoint x="160" y="550" as="targetPoint" />
          </mxGeometry>
        </mxCell>
        <mxCell id="vhrxewNEwcAQ_lFFi1NT-28" value="" style="endArrow=none;dashed=1;html=1;dashPattern=1 3;strokeWidth=2;rounded=0;entryX=1;entryY=0.5;entryDx=0;entryDy=0;exitX=0.923;exitY=-0.003;exitDx=0;exitDy=0;exitPerimeter=0;" edge="1" parent="1" source="vhrxewNEwcAQ_lFFi1NT-26" target="vhrxewNEwcAQ_lFFi1NT-25">
          <mxGeometry width="50" height="50" relative="1" as="geometry">
            <mxPoint x="120" y="609.9999999999998" as="sourcePoint" />
            <mxPoint x="333.46000000000004" y="440.3399999999999" as="targetPoint" />
          </mxGeometry>
        </mxCell>
        <mxCell id="vhrxewNEwcAQ_lFFi1NT-29" value="" style="rounded=1;whiteSpace=wrap;html=1;arcSize=46;" vertex="1" parent="1">
          <mxGeometry x="92" y="629" width="310" height="201" as="geometry" />
        </mxCell>
        <mxCell id="vhrxewNEwcAQ_lFFi1NT-30" value="" style="rounded=1;whiteSpace=wrap;html=1;arcSize=46;" vertex="1" parent="1">
          <mxGeometry x="75" y="629" width="310" height="185" as="geometry" />
        </mxCell>
        <mxCell id="vhrxewNEwcAQ_lFFi1NT-31" value="" style="rounded=1;whiteSpace=wrap;html=1;arcSize=46;" vertex="1" parent="1">
          <mxGeometry x="55" y="625" width="310" height="175" as="geometry" />
        </mxCell>
        <mxCell id="vhrxewNEwcAQ_lFFi1NT-32" value="" style="rounded=0;whiteSpace=wrap;html=1;dashed=1;dashPattern=1 4;" vertex="1" parent="1">
          <mxGeometry x="85" y="650" width="250" height="130" as="geometry" />
        </mxCell>
        <mxCell id="vhrxewNEwcAQ_lFFi1NT-33" value="客户机节点（如用户计算机）" style="text;html=1;strokeColor=none;fillColor=none;align=center;verticalAlign=middle;whiteSpace=wrap;rounded=0;dashed=1;dashPattern=1 4;" vertex="1" parent="1">
          <mxGeometry x="135" y="620" width="170" height="30" as="geometry" />
        </mxCell>
        <mxCell id="vhrxewNEwcAQ_lFFi1NT-34" value="虚拟数据库空间客户端" style="text;html=1;strokeColor=none;fillColor=none;align=center;verticalAlign=middle;whiteSpace=wrap;rounded=0;dashed=1;dashPattern=1 4;" vertex="1" parent="1">
          <mxGeometry x="125" y="645" width="170" height="30" as="geometry" />
        </mxCell>
        <mxCell id="vhrxewNEwcAQ_lFFi1NT-35" value="账户客户端&lt;br&gt;模块" style="rounded=0;whiteSpace=wrap;html=1;" vertex="1" parent="1">
          <mxGeometry x="92" y="675" width="63" height="45" as="geometry" />
        </mxCell>
        <mxCell id="vhrxewNEwcAQ_lFFi1NT-36" value="权限客户端模块" style="rounded=0;whiteSpace=wrap;html=1;" vertex="1" parent="1">
          <mxGeometry x="92" y="730" width="60" height="45" as="geometry" />
        </mxCell>
        <mxCell id="vhrxewNEwcAQ_lFFi1NT-37" value="数据库资源访问客户端模块&lt;span style=&quot;color: rgba(0, 0, 0, 0); font-family: monospace; font-size: 0px; text-align: start;&quot;&gt;%3CmxGraphModel%3E%3Croot%3E%3CmxCell%20id%3D%220%22%2F%3E%3CmxCell%20id%3D%221%22%20parent%3D%220%22%2F%3E%3CmxCell%20id%3D%222%22%20value%3D%22%E6%9D%83%E9%99%90%E5%AE%A2%E6%88%B7%E7%AB%AF%E6%A8%A1%E5%9D%97%22%20style%3D%22rounded%3D0%3BwhiteSpace%3Dwrap%3Bhtml%3D1%3Bdashed%3D1%3BdashPattern%3D1%204%3B%22%20vertex%3D%221%22%20parent%3D%221%22%3E%3CmxGeometry%20x%3D%22280%22%20y%3D%2270%22%20width%3D%2273%22%20height%3D%2245%22%20as%3D%22geometry%22%2F%3E%3C%2FmxCell%3E%3C%2Froot%3E%3C%2FmxGraphModel%3E&lt;/span&gt;" style="rounded=0;whiteSpace=wrap;html=1;" vertex="1" parent="1">
          <mxGeometry x="172" y="675" width="73" height="45" as="geometry" />
        </mxCell>
        <mxCell id="vhrxewNEwcAQ_lFFi1NT-38" value="数据资源访问客户端模块&lt;span style=&quot;color: rgba(0, 0, 0, 0); font-family: monospace; font-size: 0px; text-align: start;&quot;&gt;%3CmxGraphModel%3E%3Croot%3E%3CmxCell%20id%3D%220%22%2F%3E%3CmxCell%20id%3D%221%22%20parent%3D%220%22%2F%3E%3CmxCell%20id%3D%222%22%20value%3D%22%E6%9D%83%E9%99%90%E5%AE%A2%E6%88%B7%E7%AB%AF%E6%A8%A1%E5%9D%97%22%20style%3D%22rounded%3D0%3BwhiteSpace%3Dwrap%3Bhtml%3D1%3Bdashed%3D1%3BdashPattern%3D1%204%3B%22%20vertex%3D%221%22%20parent%3D%221%22%3E%3CmxGeometry%20x%3D%22280%22%20y%3D%2270%22%20width%3D%2273%22%20height%3D%2245%22%20as%3D%22geometry%22%2F%3E%3C%2FmxCell%3E%3C%2Froot%3E%3C%2FmxGraphModel%3E&lt;/span&gt;" style="rounded=0;whiteSpace=wrap;html=1;" vertex="1" parent="1">
          <mxGeometry x="172" y="730" width="73" height="45" as="geometry" />
        </mxCell>
        <mxCell id="vhrxewNEwcAQ_lFFi1NT-39" value="主题服务访问客户端模块&lt;span style=&quot;color: rgba(0, 0, 0, 0); font-family: monospace; font-size: 0px; text-align: start;&quot;&gt;%3CmxGraphModel%3E%3Croot%3E%3CmxCell%20id%3D%220%22%2F%3E%3CmxCell%20id%3D%221%22%20parent%3D%220%22%2F%3E%3CmxCell%20id%3D%222%22%20value%3D%22%E6%9D%83%E9%99%90%E5%AE%A2%E6%88%B7%E7%AB%AF%E6%A8%A1%E5%9D%97%22%20style%3D%22rounded%3D0%3BwhiteSpace%3Dwrap%3Bhtml%3D1%3Bdashed%3D1%3BdashPattern%3D1%204%3B%22%20vertex%3D%221%22%20parent%3D%221%22%3E%3CmxGeometry%20x%3D%22280%22%20y%3D%2270%22%20width%3D%2273%22%20height%3D%2245%22%20as%3D%22geometry%22%2F%3E%3C%2FmxCell%3E%3C%2Froot%3E%3C%2FmxGraphModel%3E&lt;/span&gt;" style="rounded=0;whiteSpace=wrap;html=1;" vertex="1" parent="1">
          <mxGeometry x="255" y="675" width="70" height="100" as="geometry" />
        </mxCell>
        <mxCell id="vhrxewNEwcAQ_lFFi1NT-51" value="" style="rounded=1;whiteSpace=wrap;html=1;arcSize=46;" vertex="1" parent="1">
          <mxGeometry x="477" y="625.5" width="310" height="201" as="geometry" />
        </mxCell>
        <mxCell id="vhrxewNEwcAQ_lFFi1NT-52" value="" style="rounded=1;whiteSpace=wrap;html=1;arcSize=46;" vertex="1" parent="1">
          <mxGeometry x="460" y="625.5" width="310" height="185" as="geometry" />
        </mxCell>
        <mxCell id="vhrxewNEwcAQ_lFFi1NT-53" value="" style="rounded=1;whiteSpace=wrap;html=1;arcSize=46;" vertex="1" parent="1">
          <mxGeometry x="440" y="621.5" width="310" height="175" as="geometry" />
        </mxCell>
        <mxCell id="vhrxewNEwcAQ_lFFi1NT-55" value="数据库资源管理平台" style="text;html=1;strokeColor=none;fillColor=none;align=center;verticalAlign=middle;whiteSpace=wrap;rounded=0;dashed=1;dashPattern=1 4;" vertex="1" parent="1">
          <mxGeometry x="520" y="616.5" width="170" height="30" as="geometry" />
        </mxCell>
        <mxCell id="vhrxewNEwcAQ_lFFi1NT-62" value="" style="rounded=1;whiteSpace=wrap;html=1;arcSize=46;" vertex="1" parent="1">
          <mxGeometry x="92" y="959" width="310" height="201" as="geometry" />
        </mxCell>
        <mxCell id="vhrxewNEwcAQ_lFFi1NT-63" value="" style="rounded=1;whiteSpace=wrap;html=1;arcSize=46;" vertex="1" parent="1">
          <mxGeometry x="75" y="959" width="310" height="185" as="geometry" />
        </mxCell>
        <mxCell id="vhrxewNEwcAQ_lFFi1NT-64" value="" style="rounded=1;whiteSpace=wrap;html=1;arcSize=46;" vertex="1" parent="1">
          <mxGeometry x="55" y="955" width="310" height="175" as="geometry" />
        </mxCell>
        <mxCell id="vhrxewNEwcAQ_lFFi1NT-66" value="数据资源管理平台" style="text;html=1;strokeColor=none;fillColor=none;align=center;verticalAlign=middle;whiteSpace=wrap;rounded=0;dashed=1;dashPattern=1 4;" vertex="1" parent="1">
          <mxGeometry x="135" y="950" width="170" height="30" as="geometry" />
        </mxCell>
        <mxCell id="vhrxewNEwcAQ_lFFi1NT-73" value="跨域局域网" style="ellipse;whiteSpace=wrap;html=1;" vertex="1" parent="1">
          <mxGeometry x="354" y="845" width="120" height="80" as="geometry" />
        </mxCell>
        <mxCell id="vhrxewNEwcAQ_lFFi1NT-75" value="" style="rounded=1;whiteSpace=wrap;html=1;arcSize=46;" vertex="1" parent="1">
          <mxGeometry x="478.5" y="959" width="310" height="201" as="geometry" />
        </mxCell>
        <mxCell id="vhrxewNEwcAQ_lFFi1NT-76" value="" style="rounded=1;whiteSpace=wrap;html=1;arcSize=46;" vertex="1" parent="1">
          <mxGeometry x="461.5" y="959" width="310" height="185" as="geometry" />
        </mxCell>
        <mxCell id="vhrxewNEwcAQ_lFFi1NT-77" value="" style="rounded=1;whiteSpace=wrap;html=1;arcSize=46;" vertex="1" parent="1">
          <mxGeometry x="441.5" y="955" width="310" height="175" as="geometry" />
        </mxCell>
        <mxCell id="vhrxewNEwcAQ_lFFi1NT-79" value="主题服务管理平台" style="text;html=1;strokeColor=none;fillColor=none;align=center;verticalAlign=middle;whiteSpace=wrap;rounded=0;dashed=1;dashPattern=1 4;" vertex="1" parent="1">
          <mxGeometry x="522.5" y="950" width="170" height="30" as="geometry" />
        </mxCell>
        <mxCell id="vhrxewNEwcAQ_lFFi1NT-86" value="" style="endArrow=none;html=1;rounded=0;entryX=0.5;entryY=1;entryDx=0;entryDy=0;exitX=0;exitY=0;exitDx=0;exitDy=0;" edge="1" parent="1" source="vhrxewNEwcAQ_lFFi1NT-73" target="vhrxewNEwcAQ_lFFi1NT-31">
          <mxGeometry width="50" height="50" relative="1" as="geometry">
            <mxPoint x="280" y="910" as="sourcePoint" />
            <mxPoint x="330" y="860" as="targetPoint" />
          </mxGeometry>
        </mxCell>
        <mxCell id="vhrxewNEwcAQ_lFFi1NT-87" value="" style="endArrow=none;html=1;rounded=0;exitX=1;exitY=0;exitDx=0;exitDy=0;entryX=0.5;entryY=1;entryDx=0;entryDy=0;" edge="1" parent="1" source="vhrxewNEwcAQ_lFFi1NT-73" target="vhrxewNEwcAQ_lFFi1NT-53">
          <mxGeometry width="50" height="50" relative="1" as="geometry">
            <mxPoint x="530" y="920" as="sourcePoint" />
            <mxPoint x="580" y="870" as="targetPoint" />
          </mxGeometry>
        </mxCell>
        <mxCell id="vhrxewNEwcAQ_lFFi1NT-89" value="" style="endArrow=none;html=1;rounded=0;entryX=0;entryY=1;entryDx=0;entryDy=0;exitX=0.5;exitY=0;exitDx=0;exitDy=0;" edge="1" parent="1" source="vhrxewNEwcAQ_lFFi1NT-64" target="vhrxewNEwcAQ_lFFi1NT-73">
          <mxGeometry width="50" height="50" relative="1" as="geometry">
            <mxPoint x="230" y="940" as="sourcePoint" />
            <mxPoint x="280" y="890" as="targetPoint" />
          </mxGeometry>
        </mxCell>
        <mxCell id="vhrxewNEwcAQ_lFFi1NT-90" value="" style="endArrow=none;html=1;rounded=0;entryX=1;entryY=1;entryDx=0;entryDy=0;exitX=0.5;exitY=0;exitDx=0;exitDy=0;" edge="1" parent="1" source="vhrxewNEwcAQ_lFFi1NT-77" target="vhrxewNEwcAQ_lFFi1NT-73">
          <mxGeometry width="50" height="50" relative="1" as="geometry">
            <mxPoint x="570" y="940" as="sourcePoint" />
            <mxPoint x="620" y="890" as="targetPoint" />
          </mxGeometry>
        </mxCell>
      </root>
    </mxGraphModel>
  </diagram>
</mxfile>
